<mxfile host="app.diagrams.net" agent="Mozilla/5.0 (Windows NT 10.0; Win64; x64) AppleWebKit/537.36 (KHTML, like Gecko) Chrome/134.0.0.0 Safari/537.36" version="26.1.3">
  <diagram id="R2lEEEUBdFMjLlhIrx00" name="Page-1">
    <mxGraphModel dx="1724" dy="1526" grid="1" gridSize="10" guides="1" tooltips="1" connect="1" arrows="1" fold="1" page="1" pageScale="1" pageWidth="850" pageHeight="1100" math="0" shadow="0" extFonts="Permanent Marker^https://fonts.googleapis.com/css?family=Permanent+Marker">
      <root>
        <mxCell id="0" />
        <mxCell id="1" parent="0" />
        <mxCell id="HOGzAkAIOEdq5Mt2ihTx-21" value="Cliente" style="whiteSpace=wrap;html=1;align=center;" parent="1" vertex="1">
          <mxGeometry x="50" y="-10" width="100" height="40" as="geometry" />
        </mxCell>
        <mxCell id="HOGzAkAIOEdq5Mt2ihTx-23" value="id_cliente" style="ellipse;whiteSpace=wrap;html=1;align=center;fontStyle=4;" parent="1" vertex="1">
          <mxGeometry x="200" y="-50" width="70" height="30" as="geometry" />
        </mxCell>
        <mxCell id="HOGzAkAIOEdq5Mt2ihTx-26" value="" style="endArrow=none;html=1;rounded=0;entryX=1;entryY=0;entryDx=0;entryDy=0;exitX=0;exitY=0.5;exitDx=0;exitDy=0;" parent="1" source="HOGzAkAIOEdq5Mt2ihTx-23" target="HOGzAkAIOEdq5Mt2ihTx-21" edge="1">
          <mxGeometry width="50" height="50" relative="1" as="geometry">
            <mxPoint x="74" y="100" as="sourcePoint" />
            <mxPoint x="450" y="200" as="targetPoint" />
            <Array as="points" />
          </mxGeometry>
        </mxCell>
        <mxCell id="HOGzAkAIOEdq5Mt2ihTx-27" value="fecha" style="ellipse;whiteSpace=wrap;html=1;align=center;" parent="1" vertex="1">
          <mxGeometry x="170" y="480" width="60" height="40" as="geometry" />
        </mxCell>
        <mxCell id="HOGzAkAIOEdq5Mt2ihTx-29" value="direccion" style="ellipse;whiteSpace=wrap;html=1;align=center;" parent="1" vertex="1">
          <mxGeometry x="165" y="-10" width="70" height="30" as="geometry" />
        </mxCell>
        <mxCell id="HOGzAkAIOEdq5Mt2ihTx-31" value="" style="endArrow=none;html=1;rounded=0;exitX=0.9;exitY=1;exitDx=0;exitDy=0;entryX=0;entryY=0;entryDx=0;entryDy=0;exitPerimeter=0;" parent="1" source="HOGzAkAIOEdq5Mt2ihTx-21" target="HOGzAkAIOEdq5Mt2ihTx-96" edge="1">
          <mxGeometry width="50" height="50" relative="1" as="geometry">
            <mxPoint x="400" y="250" as="sourcePoint" />
            <mxPoint x="160" y="65" as="targetPoint" />
          </mxGeometry>
        </mxCell>
        <mxCell id="HOGzAkAIOEdq5Mt2ihTx-32" value="" style="endArrow=none;html=1;rounded=0;exitX=1;exitY=0.25;exitDx=0;exitDy=0;entryX=0;entryY=0.5;entryDx=0;entryDy=0;" parent="1" source="HOGzAkAIOEdq5Mt2ihTx-21" target="HOGzAkAIOEdq5Mt2ihTx-29" edge="1">
          <mxGeometry width="50" height="50" relative="1" as="geometry">
            <mxPoint x="400" y="250" as="sourcePoint" />
            <mxPoint x="450" y="200" as="targetPoint" />
          </mxGeometry>
        </mxCell>
        <mxCell id="HOGzAkAIOEdq5Mt2ihTx-33" value="Venta" style="whiteSpace=wrap;html=1;align=center;" parent="1" vertex="1">
          <mxGeometry x="200" y="420" width="100" height="40" as="geometry" />
        </mxCell>
        <mxCell id="HOGzAkAIOEdq5Mt2ihTx-35" value="cantidad_libro" style="ellipse;whiteSpace=wrap;html=1;align=center;" parent="1" vertex="1">
          <mxGeometry x="300" y="150" width="100" height="40" as="geometry" />
        </mxCell>
        <mxCell id="HOGzAkAIOEdq5Mt2ihTx-36" value="id_venta" style="ellipse;whiteSpace=wrap;html=1;align=center;fontStyle=4;" parent="1" vertex="1">
          <mxGeometry x="260" y="480" width="60" height="40" as="geometry" />
        </mxCell>
        <mxCell id="HOGzAkAIOEdq5Mt2ihTx-40" value="Libro" style="whiteSpace=wrap;html=1;align=center;" parent="1" vertex="1">
          <mxGeometry x="160" y="177.5" width="100" height="40" as="geometry" />
        </mxCell>
        <mxCell id="HOGzAkAIOEdq5Mt2ihTx-41" value="id_libro" style="ellipse;whiteSpace=wrap;html=1;align=center;fontStyle=4;" parent="1" vertex="1">
          <mxGeometry x="85" y="230" width="80" height="30" as="geometry" />
        </mxCell>
        <mxCell id="HOGzAkAIOEdq5Mt2ihTx-48" value="" style="endArrow=none;html=1;rounded=0;entryX=0.25;entryY=1;entryDx=0;entryDy=0;exitX=0.625;exitY=0;exitDx=0;exitDy=0;exitPerimeter=0;" parent="1" source="HOGzAkAIOEdq5Mt2ihTx-41" target="HOGzAkAIOEdq5Mt2ihTx-40" edge="1">
          <mxGeometry relative="1" as="geometry">
            <mxPoint x="80" y="240" as="sourcePoint" />
            <mxPoint x="500" y="220" as="targetPoint" />
          </mxGeometry>
        </mxCell>
        <mxCell id="HOGzAkAIOEdq5Mt2ihTx-50" value="isbn" style="ellipse;whiteSpace=wrap;html=1;align=center;" parent="1" vertex="1">
          <mxGeometry x="185" y="238" width="50" height="40" as="geometry" />
        </mxCell>
        <mxCell id="HOGzAkAIOEdq5Mt2ihTx-52" value="tema" style="ellipse;whiteSpace=wrap;html=1;align=center;" parent="1" vertex="1">
          <mxGeometry x="90" y="140" width="70" height="30" as="geometry" />
        </mxCell>
        <mxCell id="HOGzAkAIOEdq5Mt2ihTx-53" value="" style="endArrow=none;html=1;rounded=0;entryX=0.41;entryY=0.975;entryDx=0;entryDy=0;exitX=0.5;exitY=0;exitDx=0;exitDy=0;entryPerimeter=0;" parent="1" source="HOGzAkAIOEdq5Mt2ihTx-50" target="HOGzAkAIOEdq5Mt2ihTx-40" edge="1">
          <mxGeometry relative="1" as="geometry">
            <mxPoint x="145" y="260" as="sourcePoint" />
            <mxPoint x="500" y="220" as="targetPoint" />
          </mxGeometry>
        </mxCell>
        <mxCell id="HOGzAkAIOEdq5Mt2ihTx-55" value="" style="endArrow=none;html=1;rounded=0;exitX=0.5;exitY=1;exitDx=0;exitDy=0;entryX=0;entryY=0;entryDx=0;entryDy=0;" parent="1" source="HOGzAkAIOEdq5Mt2ihTx-52" target="HOGzAkAIOEdq5Mt2ihTx-40" edge="1">
          <mxGeometry relative="1" as="geometry">
            <mxPoint x="340" y="220" as="sourcePoint" />
            <mxPoint x="500" y="220" as="targetPoint" />
          </mxGeometry>
        </mxCell>
        <mxCell id="HOGzAkAIOEdq5Mt2ihTx-57" value="" style="endArrow=none;html=1;rounded=0;exitX=0.5;exitY=0;exitDx=0;exitDy=0;entryX=0.5;entryY=1;entryDx=0;entryDy=0;" parent="1" source="HOGzAkAIOEdq5Mt2ihTx-60" target="HOGzAkAIOEdq5Mt2ihTx-35" edge="1">
          <mxGeometry relative="1" as="geometry">
            <mxPoint x="340" y="220" as="sourcePoint" />
            <mxPoint x="490" y="120" as="targetPoint" />
          </mxGeometry>
        </mxCell>
        <mxCell id="HOGzAkAIOEdq5Mt2ihTx-59" value="" style="endArrow=none;html=1;rounded=0;exitX=1;exitY=0.25;exitDx=0;exitDy=0;entryX=0;entryY=0.5;entryDx=0;entryDy=0;" parent="1" source="HOGzAkAIOEdq5Mt2ihTx-40" target="HOGzAkAIOEdq5Mt2ihTx-60" edge="1">
          <mxGeometry relative="1" as="geometry">
            <mxPoint x="340" y="220" as="sourcePoint" />
            <mxPoint x="300" y="250" as="targetPoint" />
          </mxGeometry>
        </mxCell>
        <mxCell id="HOGzAkAIOEdq5Mt2ihTx-60" value="" style="shape=rhombus;perimeter=rhombusPerimeter;whiteSpace=wrap;html=1;align=center;" parent="1" vertex="1">
          <mxGeometry x="310" y="218" width="70" height="30" as="geometry" />
        </mxCell>
        <mxCell id="HOGzAkAIOEdq5Mt2ihTx-62" value="" style="endArrow=none;html=1;rounded=0;entryX=0;entryY=0.5;entryDx=0;entryDy=0;" parent="1" target="HOGzAkAIOEdq5Mt2ihTx-36" edge="1">
          <mxGeometry relative="1" as="geometry">
            <mxPoint x="260" y="460" as="sourcePoint" />
            <mxPoint x="500" y="220" as="targetPoint" />
          </mxGeometry>
        </mxCell>
        <mxCell id="HOGzAkAIOEdq5Mt2ihTx-63" value="" style="endArrow=none;html=1;rounded=0;exitX=0.25;exitY=1;exitDx=0;exitDy=0;entryX=0.7;entryY=0.05;entryDx=0;entryDy=0;entryPerimeter=0;" parent="1" source="HOGzAkAIOEdq5Mt2ihTx-33" target="HOGzAkAIOEdq5Mt2ihTx-27" edge="1">
          <mxGeometry relative="1" as="geometry">
            <mxPoint x="230" y="470" as="sourcePoint" />
            <mxPoint x="220" y="490" as="targetPoint" />
          </mxGeometry>
        </mxCell>
        <mxCell id="HOGzAkAIOEdq5Mt2ihTx-66" value="" style="shape=rhombus;perimeter=rhombusPerimeter;whiteSpace=wrap;html=1;align=center;" parent="1" vertex="1">
          <mxGeometry x="140" y="90" width="40" height="30" as="geometry" />
        </mxCell>
        <mxCell id="HOGzAkAIOEdq5Mt2ihTx-70" value="" style="endArrow=none;html=1;rounded=0;exitX=0.5;exitY=1;exitDx=0;exitDy=0;entryX=0.5;entryY=0;entryDx=0;entryDy=0;" parent="1" source="HOGzAkAIOEdq5Mt2ihTx-21" target="HOGzAkAIOEdq5Mt2ihTx-66" edge="1">
          <mxGeometry relative="1" as="geometry">
            <mxPoint x="370" y="250" as="sourcePoint" />
            <mxPoint x="530" y="250" as="targetPoint" />
          </mxGeometry>
        </mxCell>
        <mxCell id="HOGzAkAIOEdq5Mt2ihTx-72" value="" style="endArrow=none;html=1;rounded=0;entryX=0.5;entryY=1;entryDx=0;entryDy=0;exitX=0.33;exitY=0.05;exitDx=0;exitDy=0;exitPerimeter=0;" parent="1" source="HOGzAkAIOEdq5Mt2ihTx-40" target="HOGzAkAIOEdq5Mt2ihTx-66" edge="1">
          <mxGeometry relative="1" as="geometry">
            <mxPoint x="100" y="250" as="sourcePoint" />
            <mxPoint x="530" y="210" as="targetPoint" />
          </mxGeometry>
        </mxCell>
        <mxCell id="HOGzAkAIOEdq5Mt2ihTx-75" value="nombre_empresa" style="ellipse;whiteSpace=wrap;html=1;align=center;" parent="1" vertex="1">
          <mxGeometry x="180" y="-110" width="110" height="30" as="geometry" />
        </mxCell>
        <mxCell id="HOGzAkAIOEdq5Mt2ihTx-76" value="tipo_persona" style="ellipse;whiteSpace=wrap;html=1;align=center;" parent="1" vertex="1">
          <mxGeometry x="10" y="-70" width="90" height="30" as="geometry" />
        </mxCell>
        <mxCell id="HOGzAkAIOEdq5Mt2ihTx-77" value="" style="endArrow=none;html=1;rounded=0;entryX=0.5;entryY=1;entryDx=0;entryDy=0;exitX=0.25;exitY=0;exitDx=0;exitDy=0;" parent="1" source="HOGzAkAIOEdq5Mt2ihTx-21" target="HOGzAkAIOEdq5Mt2ihTx-76" edge="1">
          <mxGeometry relative="1" as="geometry">
            <mxPoint x="370" y="-90" as="sourcePoint" />
            <mxPoint x="530" y="-90" as="targetPoint" />
          </mxGeometry>
        </mxCell>
        <mxCell id="HOGzAkAIOEdq5Mt2ihTx-78" value="" style="endArrow=none;html=1;rounded=0;exitX=0.41;exitY=1;exitDx=0;exitDy=0;exitPerimeter=0;entryX=0.75;entryY=0;entryDx=0;entryDy=0;" parent="1" source="HOGzAkAIOEdq5Mt2ihTx-75" target="HOGzAkAIOEdq5Mt2ihTx-21" edge="1">
          <mxGeometry relative="1" as="geometry">
            <mxPoint x="370" y="-90" as="sourcePoint" />
            <mxPoint x="130" y="-20" as="targetPoint" />
          </mxGeometry>
        </mxCell>
        <mxCell id="HOGzAkAIOEdq5Mt2ihTx-79" value="lista_libro" style="ellipse;whiteSpace=wrap;html=1;align=center;" parent="1" vertex="1">
          <mxGeometry x="110" y="-90" width="80" height="30" as="geometry" />
        </mxCell>
        <mxCell id="HOGzAkAIOEdq5Mt2ihTx-80" value="" style="endArrow=none;html=1;rounded=0;entryX=0.5;entryY=0;entryDx=0;entryDy=0;exitX=0.288;exitY=0.967;exitDx=0;exitDy=0;exitPerimeter=0;" parent="1" source="HOGzAkAIOEdq5Mt2ihTx-79" target="HOGzAkAIOEdq5Mt2ihTx-21" edge="1">
          <mxGeometry relative="1" as="geometry">
            <mxPoint x="140" y="-99" as="sourcePoint" />
            <mxPoint x="510" y="10" as="targetPoint" />
          </mxGeometry>
        </mxCell>
        <mxCell id="HOGzAkAIOEdq5Mt2ihTx-83" value="Editoriales" style="whiteSpace=wrap;html=1;align=center;" parent="1" vertex="1">
          <mxGeometry x="620" y="-55" width="100" height="40" as="geometry" />
        </mxCell>
        <mxCell id="HOGzAkAIOEdq5Mt2ihTx-84" value="telefono" style="ellipse;whiteSpace=wrap;html=1;align=center;" parent="1" vertex="1">
          <mxGeometry x="660" y="-110" width="80" height="30" as="geometry" />
        </mxCell>
        <mxCell id="HOGzAkAIOEdq5Mt2ihTx-85" value="direccion" style="ellipse;whiteSpace=wrap;html=1;align=center;" parent="1" vertex="1">
          <mxGeometry x="550" y="-130" width="90" height="30" as="geometry" />
        </mxCell>
        <mxCell id="HOGzAkAIOEdq5Mt2ihTx-86" value="id_editoriales" style="ellipse;whiteSpace=wrap;html=1;align=center;" parent="1" vertex="1">
          <mxGeometry x="515" y="-80" width="80" height="40" as="geometry" />
        </mxCell>
        <mxCell id="HOGzAkAIOEdq5Mt2ihTx-87" value="nombre_gerente" style="ellipse;whiteSpace=wrap;html=1;align=center;" parent="1" vertex="1">
          <mxGeometry x="650" width="100" height="30" as="geometry" />
        </mxCell>
        <mxCell id="HOGzAkAIOEdq5Mt2ihTx-89" value="" style="endArrow=none;html=1;rounded=0;exitX=0.75;exitY=0;exitDx=0;exitDy=0;" parent="1" source="HOGzAkAIOEdq5Mt2ihTx-83" target="HOGzAkAIOEdq5Mt2ihTx-84" edge="1">
          <mxGeometry relative="1" as="geometry">
            <mxPoint x="350" y="110" as="sourcePoint" />
            <mxPoint x="510" y="110" as="targetPoint" />
          </mxGeometry>
        </mxCell>
        <mxCell id="HOGzAkAIOEdq5Mt2ihTx-90" value="" style="endArrow=none;html=1;rounded=0;exitX=0.25;exitY=0;exitDx=0;exitDy=0;entryX=1;entryY=1;entryDx=0;entryDy=0;" parent="1" source="HOGzAkAIOEdq5Mt2ihTx-83" target="HOGzAkAIOEdq5Mt2ihTx-85" edge="1">
          <mxGeometry relative="1" as="geometry">
            <mxPoint x="350" y="110" as="sourcePoint" />
            <mxPoint x="520" y="-30" as="targetPoint" />
          </mxGeometry>
        </mxCell>
        <mxCell id="HOGzAkAIOEdq5Mt2ihTx-91" value="" style="endArrow=none;html=1;rounded=0;entryX=1;entryY=0.5;entryDx=0;entryDy=0;exitX=0;exitY=0.25;exitDx=0;exitDy=0;" parent="1" source="HOGzAkAIOEdq5Mt2ihTx-83" target="HOGzAkAIOEdq5Mt2ihTx-86" edge="1">
          <mxGeometry relative="1" as="geometry">
            <mxPoint x="540" y="-60" as="sourcePoint" />
            <mxPoint x="510" y="110" as="targetPoint" />
          </mxGeometry>
        </mxCell>
        <mxCell id="HOGzAkAIOEdq5Mt2ihTx-92" value="" style="endArrow=none;html=1;rounded=0;exitX=0.75;exitY=1;exitDx=0;exitDy=0;entryX=0.7;entryY=0;entryDx=0;entryDy=0;entryPerimeter=0;" parent="1" source="HOGzAkAIOEdq5Mt2ihTx-83" target="HOGzAkAIOEdq5Mt2ihTx-87" edge="1">
          <mxGeometry relative="1" as="geometry">
            <mxPoint x="350" y="10" as="sourcePoint" />
            <mxPoint x="570" y="30" as="targetPoint" />
          </mxGeometry>
        </mxCell>
        <mxCell id="HOGzAkAIOEdq5Mt2ihTx-96" value="telefono" style="ellipse;shape=doubleEllipse;margin=3;whiteSpace=wrap;html=1;align=center;" parent="1" vertex="1">
          <mxGeometry x="205" y="30" width="70" height="40" as="geometry" />
        </mxCell>
        <mxCell id="HOGzAkAIOEdq5Mt2ihTx-97" value="Gerente" style="whiteSpace=wrap;html=1;align=center;" parent="1" vertex="1">
          <mxGeometry x="890" y="-55" width="100" height="40" as="geometry" />
        </mxCell>
        <mxCell id="HOGzAkAIOEdq5Mt2ihTx-98" value="telefono" style="ellipse;whiteSpace=wrap;html=1;align=center;" parent="1" vertex="1">
          <mxGeometry x="860" y="-100" width="60" height="30" as="geometry" />
        </mxCell>
        <mxCell id="HOGzAkAIOEdq5Mt2ihTx-99" value="nombre" style="ellipse;whiteSpace=wrap;html=1;align=center;" parent="1" vertex="1">
          <mxGeometry x="920" width="60" height="40" as="geometry" />
        </mxCell>
        <mxCell id="HOGzAkAIOEdq5Mt2ihTx-100" value="id_gerente" style="ellipse;whiteSpace=wrap;html=1;align=center;" parent="1" vertex="1">
          <mxGeometry x="830" y="15" width="80" height="30" as="geometry" />
        </mxCell>
        <mxCell id="HOGzAkAIOEdq5Mt2ihTx-101" value="" style="endArrow=none;html=1;rounded=0;exitX=0.5;exitY=1;exitDx=0;exitDy=0;entryX=0;entryY=0;entryDx=0;entryDy=0;" parent="1" source="HOGzAkAIOEdq5Mt2ihTx-97" target="HOGzAkAIOEdq5Mt2ihTx-99" edge="1">
          <mxGeometry relative="1" as="geometry">
            <mxPoint x="350" y="110" as="sourcePoint" />
            <mxPoint x="510" y="110" as="targetPoint" />
          </mxGeometry>
        </mxCell>
        <mxCell id="HOGzAkAIOEdq5Mt2ihTx-102" value="" style="endArrow=none;html=1;rounded=0;entryX=0.313;entryY=0;entryDx=0;entryDy=0;entryPerimeter=0;exitX=0.13;exitY=1;exitDx=0;exitDy=0;exitPerimeter=0;" parent="1" source="HOGzAkAIOEdq5Mt2ihTx-97" target="HOGzAkAIOEdq5Mt2ihTx-100" edge="1">
          <mxGeometry relative="1" as="geometry">
            <mxPoint x="865" y="-10" as="sourcePoint" />
            <mxPoint x="700" y="127" as="targetPoint" />
          </mxGeometry>
        </mxCell>
        <mxCell id="HOGzAkAIOEdq5Mt2ihTx-103" value="" style="endArrow=none;html=1;rounded=0;exitX=0.25;exitY=0;exitDx=0;exitDy=0;entryX=1;entryY=0.667;entryDx=0;entryDy=0;entryPerimeter=0;" parent="1" source="HOGzAkAIOEdq5Mt2ihTx-97" target="HOGzAkAIOEdq5Mt2ihTx-98" edge="1">
          <mxGeometry relative="1" as="geometry">
            <mxPoint x="470" y="100" as="sourcePoint" />
            <mxPoint x="510" y="110" as="targetPoint" />
          </mxGeometry>
        </mxCell>
        <mxCell id="HOGzAkAIOEdq5Mt2ihTx-106" value="Empleado" style="whiteSpace=wrap;html=1;align=center;" parent="1" vertex="1">
          <mxGeometry x="710" y="260" width="100" height="40" as="geometry" />
        </mxCell>
        <mxCell id="HOGzAkAIOEdq5Mt2ihTx-107" value="telefono" style="ellipse;whiteSpace=wrap;html=1;align=center;" parent="1" vertex="1">
          <mxGeometry x="715" y="350" width="100" height="40" as="geometry" />
        </mxCell>
        <mxCell id="HOGzAkAIOEdq5Mt2ihTx-108" value="direccion" style="ellipse;whiteSpace=wrap;html=1;align=center;" parent="1" vertex="1">
          <mxGeometry x="790" y="320" width="100" height="40" as="geometry" />
        </mxCell>
        <mxCell id="HOGzAkAIOEdq5Mt2ihTx-109" value="nombre" style="ellipse;whiteSpace=wrap;html=1;align=center;" parent="1" vertex="1">
          <mxGeometry x="790" y="200" width="100" height="40" as="geometry" />
        </mxCell>
        <mxCell id="HOGzAkAIOEdq5Mt2ihTx-110" value="id_empleado" style="ellipse;whiteSpace=wrap;html=1;align=center;" parent="1" vertex="1">
          <mxGeometry x="820" y="260" width="100" height="40" as="geometry" />
        </mxCell>
        <mxCell id="HOGzAkAIOEdq5Mt2ihTx-111" value="" style="endArrow=none;html=1;rounded=0;exitX=1;exitY=0;exitDx=0;exitDy=0;entryX=0.33;entryY=1.025;entryDx=0;entryDy=0;entryPerimeter=0;" parent="1" source="HOGzAkAIOEdq5Mt2ihTx-106" target="HOGzAkAIOEdq5Mt2ihTx-109" edge="1">
          <mxGeometry relative="1" as="geometry">
            <mxPoint x="360" y="310" as="sourcePoint" />
            <mxPoint x="520" y="310" as="targetPoint" />
          </mxGeometry>
        </mxCell>
        <mxCell id="HOGzAkAIOEdq5Mt2ihTx-112" value="" style="endArrow=none;html=1;rounded=0;exitX=0.5;exitY=1;exitDx=0;exitDy=0;entryX=0.42;entryY=0.05;entryDx=0;entryDy=0;entryPerimeter=0;" parent="1" source="HOGzAkAIOEdq5Mt2ihTx-106" target="HOGzAkAIOEdq5Mt2ihTx-107" edge="1">
          <mxGeometry relative="1" as="geometry">
            <mxPoint x="360" y="310" as="sourcePoint" />
            <mxPoint x="520" y="310" as="targetPoint" />
          </mxGeometry>
        </mxCell>
        <mxCell id="HOGzAkAIOEdq5Mt2ihTx-113" value="" style="endArrow=none;html=1;rounded=0;exitX=0.75;exitY=1;exitDx=0;exitDy=0;entryX=0.09;entryY=0.15;entryDx=0;entryDy=0;entryPerimeter=0;" parent="1" source="HOGzAkAIOEdq5Mt2ihTx-106" target="HOGzAkAIOEdq5Mt2ihTx-108" edge="1">
          <mxGeometry relative="1" as="geometry">
            <mxPoint x="360" y="310" as="sourcePoint" />
            <mxPoint x="520" y="310" as="targetPoint" />
          </mxGeometry>
        </mxCell>
        <mxCell id="HOGzAkAIOEdq5Mt2ihTx-114" value="" style="endArrow=none;html=1;rounded=0;exitX=1;exitY=0.5;exitDx=0;exitDy=0;" parent="1" source="HOGzAkAIOEdq5Mt2ihTx-106" target="HOGzAkAIOEdq5Mt2ihTx-110" edge="1">
          <mxGeometry relative="1" as="geometry">
            <mxPoint x="360" y="310" as="sourcePoint" />
            <mxPoint x="520" y="310" as="targetPoint" />
          </mxGeometry>
        </mxCell>
        <mxCell id="HOGzAkAIOEdq5Mt2ihTx-118" style="edgeStyle=orthogonalEdgeStyle;rounded=0;orthogonalLoop=1;jettySize=auto;html=1;exitX=0.5;exitY=1;exitDx=0;exitDy=0;" parent="1" edge="1">
          <mxGeometry relative="1" as="geometry">
            <mxPoint x="422.5" y="280" as="sourcePoint" />
            <mxPoint x="422.5" y="280" as="targetPoint" />
          </mxGeometry>
        </mxCell>
        <mxCell id="HOGzAkAIOEdq5Mt2ihTx-119" style="edgeStyle=orthogonalEdgeStyle;rounded=0;orthogonalLoop=1;jettySize=auto;html=1;exitX=0.5;exitY=1;exitDx=0;exitDy=0;" parent="1" edge="1">
          <mxGeometry relative="1" as="geometry">
            <mxPoint x="422.5" y="280" as="sourcePoint" />
            <mxPoint x="422.5" y="280" as="targetPoint" />
          </mxGeometry>
        </mxCell>
        <mxCell id="HOGzAkAIOEdq5Mt2ihTx-120" value="Libreria" style="whiteSpace=wrap;html=1;align=center;" parent="1" vertex="1">
          <mxGeometry x="425" y="240" width="100" height="40" as="geometry" />
        </mxCell>
        <mxCell id="HOGzAkAIOEdq5Mt2ihTx-121" value="Compra" style="whiteSpace=wrap;html=1;align=center;" parent="1" vertex="1">
          <mxGeometry x="520" y="110" width="100" height="40" as="geometry" />
        </mxCell>
        <mxCell id="HOGzAkAIOEdq5Mt2ihTx-129" value="id_codigo" style="ellipse;whiteSpace=wrap;html=1;align=center;" parent="1" vertex="1">
          <mxGeometry x="500" y="175" width="60" height="40" as="geometry" />
        </mxCell>
        <mxCell id="HOGzAkAIOEdq5Mt2ihTx-130" value="cantidad_total" style="ellipse;whiteSpace=wrap;html=1;align=center;" parent="1" vertex="1">
          <mxGeometry x="625" y="150" width="90" height="40" as="geometry" />
        </mxCell>
        <mxCell id="HOGzAkAIOEdq5Mt2ihTx-131" value="fecha" style="ellipse;whiteSpace=wrap;html=1;align=center;" parent="1" vertex="1">
          <mxGeometry x="570" y="180" width="60" height="35" as="geometry" />
        </mxCell>
        <mxCell id="HOGzAkAIOEdq5Mt2ihTx-132" value="" style="endArrow=none;html=1;rounded=0;exitX=0.15;exitY=0.975;exitDx=0;exitDy=0;exitPerimeter=0;entryX=0.5;entryY=0;entryDx=0;entryDy=0;" parent="1" source="HOGzAkAIOEdq5Mt2ihTx-121" target="HOGzAkAIOEdq5Mt2ihTx-129" edge="1">
          <mxGeometry relative="1" as="geometry">
            <mxPoint x="430" y="110" as="sourcePoint" />
            <mxPoint x="590" y="110" as="targetPoint" />
          </mxGeometry>
        </mxCell>
        <mxCell id="HOGzAkAIOEdq5Mt2ihTx-133" value="" style="endArrow=none;html=1;rounded=0;exitX=0.75;exitY=1;exitDx=0;exitDy=0;entryX=0.5;entryY=0;entryDx=0;entryDy=0;" parent="1" source="HOGzAkAIOEdq5Mt2ihTx-121" target="HOGzAkAIOEdq5Mt2ihTx-131" edge="1">
          <mxGeometry relative="1" as="geometry">
            <mxPoint x="430" y="110" as="sourcePoint" />
            <mxPoint x="590" y="110" as="targetPoint" />
          </mxGeometry>
        </mxCell>
        <mxCell id="HOGzAkAIOEdq5Mt2ihTx-134" value="" style="endArrow=none;html=1;rounded=0;exitX=1;exitY=1;exitDx=0;exitDy=0;entryX=0;entryY=0.5;entryDx=0;entryDy=0;" parent="1" source="HOGzAkAIOEdq5Mt2ihTx-121" target="HOGzAkAIOEdq5Mt2ihTx-130" edge="1">
          <mxGeometry relative="1" as="geometry">
            <mxPoint x="430" y="110" as="sourcePoint" />
            <mxPoint x="590" y="110" as="targetPoint" />
          </mxGeometry>
        </mxCell>
        <mxCell id="HOGzAkAIOEdq5Mt2ihTx-135" value="id_libreria" style="ellipse;whiteSpace=wrap;html=1;align=center;" parent="1" vertex="1">
          <mxGeometry x="450" y="310" width="60" height="40" as="geometry" />
        </mxCell>
        <mxCell id="HOGzAkAIOEdq5Mt2ihTx-136" value="capacidad" style="ellipse;whiteSpace=wrap;html=1;align=center;" parent="1" vertex="1">
          <mxGeometry x="350" y="300" width="80" height="40" as="geometry" />
        </mxCell>
        <mxCell id="HOGzAkAIOEdq5Mt2ihTx-137" value="ubicacion" style="ellipse;whiteSpace=wrap;html=1;align=center;" parent="1" vertex="1">
          <mxGeometry x="525" y="290" width="65" height="40" as="geometry" />
        </mxCell>
        <mxCell id="HOGzAkAIOEdq5Mt2ihTx-139" value="" style="endArrow=none;html=1;rounded=0;exitX=0.75;exitY=1;exitDx=0;exitDy=0;entryX=0;entryY=0;entryDx=0;entryDy=0;" parent="1" source="HOGzAkAIOEdq5Mt2ihTx-120" target="HOGzAkAIOEdq5Mt2ihTx-137" edge="1">
          <mxGeometry relative="1" as="geometry">
            <mxPoint x="430" y="310" as="sourcePoint" />
            <mxPoint x="590" y="310" as="targetPoint" />
          </mxGeometry>
        </mxCell>
        <mxCell id="HOGzAkAIOEdq5Mt2ihTx-140" value="" style="endArrow=none;html=1;rounded=0;exitX=0;exitY=1;exitDx=0;exitDy=0;entryX=0.79;entryY=0;entryDx=0;entryDy=0;entryPerimeter=0;" parent="1" source="HOGzAkAIOEdq5Mt2ihTx-120" target="HOGzAkAIOEdq5Mt2ihTx-136" edge="1">
          <mxGeometry relative="1" as="geometry">
            <mxPoint x="430" y="310" as="sourcePoint" />
            <mxPoint x="590" y="310" as="targetPoint" />
          </mxGeometry>
        </mxCell>
        <mxCell id="HOGzAkAIOEdq5Mt2ihTx-142" value="" style="endArrow=none;html=1;rounded=0;entryX=0.5;entryY=1;entryDx=0;entryDy=0;exitX=0.4;exitY=0;exitDx=0;exitDy=0;exitPerimeter=0;" parent="1" source="HOGzAkAIOEdq5Mt2ihTx-135" target="HOGzAkAIOEdq5Mt2ihTx-120" edge="1">
          <mxGeometry relative="1" as="geometry">
            <mxPoint x="430" y="310" as="sourcePoint" />
            <mxPoint x="590" y="310" as="targetPoint" />
          </mxGeometry>
        </mxCell>
        <mxCell id="HOGzAkAIOEdq5Mt2ihTx-147" value="" style="shape=rhombus;perimeter=rhombusPerimeter;whiteSpace=wrap;html=1;align=center;" parent="1" vertex="1">
          <mxGeometry x="605" y="260" width="60" height="30" as="geometry" />
        </mxCell>
        <mxCell id="HOGzAkAIOEdq5Mt2ihTx-148" value="" style="endArrow=none;html=1;rounded=0;exitX=1;exitY=0.5;exitDx=0;exitDy=0;entryX=0;entryY=0.5;entryDx=0;entryDy=0;" parent="1" source="HOGzAkAIOEdq5Mt2ihTx-120" target="HOGzAkAIOEdq5Mt2ihTx-147" edge="1">
          <mxGeometry relative="1" as="geometry">
            <mxPoint x="520" y="310" as="sourcePoint" />
            <mxPoint x="680" y="310" as="targetPoint" />
          </mxGeometry>
        </mxCell>
        <mxCell id="HOGzAkAIOEdq5Mt2ihTx-149" value="" style="endArrow=none;html=1;rounded=0;exitX=1;exitY=0.5;exitDx=0;exitDy=0;entryX=0;entryY=0.5;entryDx=0;entryDy=0;" parent="1" source="HOGzAkAIOEdq5Mt2ihTx-147" target="HOGzAkAIOEdq5Mt2ihTx-106" edge="1">
          <mxGeometry relative="1" as="geometry">
            <mxPoint x="520" y="310" as="sourcePoint" />
            <mxPoint x="680" y="310" as="targetPoint" />
          </mxGeometry>
        </mxCell>
        <mxCell id="HOGzAkAIOEdq5Mt2ihTx-151" value="1,N" style="text;html=1;align=center;verticalAlign=middle;resizable=0;points=[];autosize=1;strokeColor=none;fillColor=none;" parent="1" vertex="1">
          <mxGeometry x="650" y="248" width="40" height="30" as="geometry" />
        </mxCell>
        <mxCell id="HOGzAkAIOEdq5Mt2ihTx-152" value="1,1" style="text;html=1;align=center;verticalAlign=middle;resizable=0;points=[];autosize=1;strokeColor=none;fillColor=none;" parent="1" vertex="1">
          <mxGeometry x="570" y="248" width="40" height="30" as="geometry" />
        </mxCell>
        <mxCell id="HOGzAkAIOEdq5Mt2ihTx-153" value="N,M" style="text;html=1;align=center;verticalAlign=middle;resizable=0;points=[];autosize=1;strokeColor=none;fillColor=none;" parent="1" vertex="1">
          <mxGeometry x="350" y="200" width="50" height="30" as="geometry" />
        </mxCell>
        <mxCell id="HOGzAkAIOEdq5Mt2ihTx-156" value="" style="endArrow=none;html=1;rounded=0;entryX=0;entryY=0.75;entryDx=0;entryDy=0;exitX=1;exitY=0.5;exitDx=0;exitDy=0;" parent="1" source="HOGzAkAIOEdq5Mt2ihTx-60" target="HOGzAkAIOEdq5Mt2ihTx-121" edge="1">
          <mxGeometry relative="1" as="geometry">
            <mxPoint x="430" y="185" as="sourcePoint" />
            <mxPoint x="530" y="210" as="targetPoint" />
          </mxGeometry>
        </mxCell>
        <mxCell id="HOGzAkAIOEdq5Mt2ihTx-158" value="1,M" style="text;html=1;align=center;verticalAlign=middle;resizable=0;points=[];autosize=1;strokeColor=none;fillColor=none;" parent="1" vertex="1">
          <mxGeometry x="290" y="200" width="40" height="30" as="geometry" />
        </mxCell>
        <mxCell id="HOGzAkAIOEdq5Mt2ihTx-159" value="" style="shape=rhombus;perimeter=rhombusPerimeter;whiteSpace=wrap;html=1;align=center;" parent="1" vertex="1">
          <mxGeometry x="610" y="40" width="30" height="30" as="geometry" />
        </mxCell>
        <mxCell id="HOGzAkAIOEdq5Mt2ihTx-160" value="" style="endArrow=none;html=1;rounded=0;exitX=0.5;exitY=1;exitDx=0;exitDy=0;entryX=0.75;entryY=0;entryDx=0;entryDy=0;" parent="1" source="HOGzAkAIOEdq5Mt2ihTx-159" target="HOGzAkAIOEdq5Mt2ihTx-121" edge="1">
          <mxGeometry relative="1" as="geometry">
            <mxPoint x="650" y="10" as="sourcePoint" />
            <mxPoint x="810" y="10" as="targetPoint" />
          </mxGeometry>
        </mxCell>
        <mxCell id="HOGzAkAIOEdq5Mt2ihTx-161" value="" style="endArrow=none;html=1;rounded=0;exitX=0.25;exitY=1;exitDx=0;exitDy=0;entryX=0.5;entryY=0;entryDx=0;entryDy=0;" parent="1" source="HOGzAkAIOEdq5Mt2ihTx-83" target="HOGzAkAIOEdq5Mt2ihTx-159" edge="1">
          <mxGeometry relative="1" as="geometry">
            <mxPoint x="650" y="10" as="sourcePoint" />
            <mxPoint x="810" y="10" as="targetPoint" />
          </mxGeometry>
        </mxCell>
        <mxCell id="HOGzAkAIOEdq5Mt2ihTx-162" value="1,M" style="text;html=1;align=center;verticalAlign=middle;resizable=0;points=[];autosize=1;strokeColor=none;fillColor=none;" parent="1" vertex="1">
          <mxGeometry x="620" y="18" width="40" height="30" as="geometry" />
        </mxCell>
        <mxCell id="HOGzAkAIOEdq5Mt2ihTx-164" value="" style="shape=rhombus;perimeter=rhombusPerimeter;whiteSpace=wrap;html=1;align=center;" parent="1" vertex="1">
          <mxGeometry x="770" y="-40" width="30" height="20" as="geometry" />
        </mxCell>
        <mxCell id="HOGzAkAIOEdq5Mt2ihTx-165" value="" style="endArrow=none;html=1;rounded=0;exitX=1;exitY=0.5;exitDx=0;exitDy=0;entryX=0;entryY=0.75;entryDx=0;entryDy=0;" parent="1" source="HOGzAkAIOEdq5Mt2ihTx-164" target="HOGzAkAIOEdq5Mt2ihTx-97" edge="1">
          <mxGeometry relative="1" as="geometry">
            <mxPoint x="770" y="10" as="sourcePoint" />
            <mxPoint x="930" y="10" as="targetPoint" />
          </mxGeometry>
        </mxCell>
        <mxCell id="HOGzAkAIOEdq5Mt2ihTx-166" value="" style="endArrow=none;html=1;rounded=0;exitX=1;exitY=0.75;exitDx=0;exitDy=0;entryX=0;entryY=0.5;entryDx=0;entryDy=0;" parent="1" source="HOGzAkAIOEdq5Mt2ihTx-83" target="HOGzAkAIOEdq5Mt2ihTx-164" edge="1">
          <mxGeometry relative="1" as="geometry">
            <mxPoint x="770" y="10" as="sourcePoint" />
            <mxPoint x="930" y="10" as="targetPoint" />
          </mxGeometry>
        </mxCell>
        <mxCell id="HOGzAkAIOEdq5Mt2ihTx-167" value="1,1" style="text;html=1;align=center;verticalAlign=middle;resizable=0;points=[];autosize=1;strokeColor=none;fillColor=none;" parent="1" vertex="1">
          <mxGeometry x="790" y="-55" width="40" height="30" as="geometry" />
        </mxCell>
        <mxCell id="HOGzAkAIOEdq5Mt2ihTx-169" value="" style="shape=rhombus;perimeter=rhombusPerimeter;whiteSpace=wrap;html=1;align=center;" parent="1" vertex="1">
          <mxGeometry x="395" y="30" width="35" height="30" as="geometry" />
        </mxCell>
        <mxCell id="HOGzAkAIOEdq5Mt2ihTx-172" value="" style="endArrow=none;html=1;rounded=0;exitX=0;exitY=0.5;exitDx=0;exitDy=0;entryX=1;entryY=0;entryDx=0;entryDy=0;" parent="1" source="HOGzAkAIOEdq5Mt2ihTx-169" target="HOGzAkAIOEdq5Mt2ihTx-40" edge="1">
          <mxGeometry relative="1" as="geometry">
            <mxPoint x="410" y="110" as="sourcePoint" />
            <mxPoint x="570" y="110" as="targetPoint" />
          </mxGeometry>
        </mxCell>
        <mxCell id="HOGzAkAIOEdq5Mt2ihTx-173" value="" style="endArrow=none;html=1;rounded=0;exitX=1;exitY=0.5;exitDx=0;exitDy=0;entryX=0;entryY=0.75;entryDx=0;entryDy=0;" parent="1" source="HOGzAkAIOEdq5Mt2ihTx-169" target="HOGzAkAIOEdq5Mt2ihTx-83" edge="1">
          <mxGeometry relative="1" as="geometry">
            <mxPoint x="410" y="110" as="sourcePoint" />
            <mxPoint x="570" y="110" as="targetPoint" />
          </mxGeometry>
        </mxCell>
        <mxCell id="HOGzAkAIOEdq5Mt2ihTx-174" value="1,M" style="text;html=1;align=center;verticalAlign=middle;resizable=0;points=[];autosize=1;strokeColor=none;fillColor=none;" parent="1" vertex="1">
          <mxGeometry x="410" y="8" width="40" height="30" as="geometry" />
        </mxCell>
        <mxCell id="HOGzAkAIOEdq5Mt2ihTx-175" value="1,1" style="text;html=1;align=center;verticalAlign=middle;resizable=0;points=[];autosize=1;strokeColor=none;fillColor=none;" parent="1" vertex="1">
          <mxGeometry x="350" y="28" width="40" height="30" as="geometry" />
        </mxCell>
        <mxCell id="HOGzAkAIOEdq5Mt2ihTx-177" value="" style="shape=rhombus;perimeter=rhombusPerimeter;whiteSpace=wrap;html=1;align=center;" parent="1" vertex="1">
          <mxGeometry x="220" y="320" width="50" height="30" as="geometry" />
        </mxCell>
        <mxCell id="HOGzAkAIOEdq5Mt2ihTx-178" value="" style="endArrow=none;html=1;rounded=0;exitX=0.5;exitY=1;exitDx=0;exitDy=0;entryX=0.4;entryY=0;entryDx=0;entryDy=0;entryPerimeter=0;" parent="1" source="HOGzAkAIOEdq5Mt2ihTx-177" target="HOGzAkAIOEdq5Mt2ihTx-33" edge="1">
          <mxGeometry relative="1" as="geometry">
            <mxPoint x="410" y="340" as="sourcePoint" />
            <mxPoint x="570" y="340" as="targetPoint" />
          </mxGeometry>
        </mxCell>
        <mxCell id="HOGzAkAIOEdq5Mt2ihTx-179" value="" style="endArrow=none;html=1;rounded=0;exitX=0.86;exitY=1.05;exitDx=0;exitDy=0;exitPerimeter=0;entryX=0.5;entryY=0;entryDx=0;entryDy=0;" parent="1" source="HOGzAkAIOEdq5Mt2ihTx-40" target="HOGzAkAIOEdq5Mt2ihTx-177" edge="1">
          <mxGeometry relative="1" as="geometry">
            <mxPoint x="410" y="340" as="sourcePoint" />
            <mxPoint x="570" y="340" as="targetPoint" />
          </mxGeometry>
        </mxCell>
        <mxCell id="HOGzAkAIOEdq5Mt2ihTx-180" value="1,N" style="text;html=1;align=center;verticalAlign=middle;resizable=0;points=[];autosize=1;strokeColor=none;fillColor=none;" parent="1" vertex="1">
          <mxGeometry x="190" y="308" width="40" height="30" as="geometry" />
        </mxCell>
        <mxCell id="HOGzAkAIOEdq5Mt2ihTx-181" value="1,M" style="text;html=1;align=center;verticalAlign=middle;resizable=0;points=[];autosize=1;strokeColor=none;fillColor=none;" parent="1" vertex="1">
          <mxGeometry x="240" y="348" width="40" height="30" as="geometry" />
        </mxCell>
        <mxCell id="HOGzAkAIOEdq5Mt2ihTx-182" value="" style="shape=rhombus;perimeter=rhombusPerimeter;whiteSpace=wrap;html=1;align=center;" parent="1" vertex="1">
          <mxGeometry x="470" y="410" width="50" height="30" as="geometry" />
        </mxCell>
        <mxCell id="HOGzAkAIOEdq5Mt2ihTx-184" value="" style="endArrow=none;html=1;rounded=0;entryX=0;entryY=0.5;entryDx=0;entryDy=0;exitX=1;exitY=0.25;exitDx=0;exitDy=0;" parent="1" source="HOGzAkAIOEdq5Mt2ihTx-33" target="HOGzAkAIOEdq5Mt2ihTx-182" edge="1">
          <mxGeometry relative="1" as="geometry">
            <mxPoint x="410" y="340" as="sourcePoint" />
            <mxPoint x="570" y="340" as="targetPoint" />
          </mxGeometry>
        </mxCell>
        <mxCell id="HOGzAkAIOEdq5Mt2ihTx-185" value="" style="endArrow=none;html=1;rounded=0;exitX=1;exitY=0.5;exitDx=0;exitDy=0;entryX=0;entryY=1;entryDx=0;entryDy=0;" parent="1" source="HOGzAkAIOEdq5Mt2ihTx-182" target="HOGzAkAIOEdq5Mt2ihTx-106" edge="1">
          <mxGeometry relative="1" as="geometry">
            <mxPoint x="410" y="340" as="sourcePoint" />
            <mxPoint x="570" y="340" as="targetPoint" />
          </mxGeometry>
        </mxCell>
        <mxCell id="HOGzAkAIOEdq5Mt2ihTx-186" value="1,N" style="text;html=1;align=center;verticalAlign=middle;resizable=0;points=[];autosize=1;strokeColor=none;fillColor=none;" parent="1" vertex="1">
          <mxGeometry x="490" y="388" width="40" height="30" as="geometry" />
        </mxCell>
        <mxCell id="HOGzAkAIOEdq5Mt2ihTx-187" value="" style="shape=rhombus;perimeter=rhombusPerimeter;whiteSpace=wrap;html=1;align=center;" parent="1" vertex="1">
          <mxGeometry x="-30" y="150" width="40" height="30" as="geometry" />
        </mxCell>
        <mxCell id="HOGzAkAIOEdq5Mt2ihTx-188" value="" style="endArrow=none;html=1;rounded=0;entryX=0;entryY=1;entryDx=0;entryDy=0;exitX=0.5;exitY=0;exitDx=0;exitDy=0;" parent="1" source="HOGzAkAIOEdq5Mt2ihTx-187" target="HOGzAkAIOEdq5Mt2ihTx-21" edge="1">
          <mxGeometry relative="1" as="geometry">
            <mxPoint x="230" y="140" as="sourcePoint" />
            <mxPoint x="390" y="140" as="targetPoint" />
          </mxGeometry>
        </mxCell>
        <mxCell id="HOGzAkAIOEdq5Mt2ihTx-189" value="" style="endArrow=none;html=1;rounded=0;exitX=0.5;exitY=1;exitDx=0;exitDy=0;entryX=0;entryY=0;entryDx=0;entryDy=0;" parent="1" source="HOGzAkAIOEdq5Mt2ihTx-187" target="HOGzAkAIOEdq5Mt2ihTx-33" edge="1">
          <mxGeometry relative="1" as="geometry">
            <mxPoint x="230" y="340" as="sourcePoint" />
            <mxPoint x="390" y="340" as="targetPoint" />
          </mxGeometry>
        </mxCell>
        <mxCell id="HOGzAkAIOEdq5Mt2ihTx-190" value="1,N" style="text;html=1;align=center;verticalAlign=middle;resizable=0;points=[];autosize=1;strokeColor=none;fillColor=none;" parent="1" vertex="1">
          <mxGeometry x="-10" y="128" width="40" height="30" as="geometry" />
        </mxCell>
        <mxCell id="HOGzAkAIOEdq5Mt2ihTx-191" value="1,1" style="text;html=1;align=center;verticalAlign=middle;resizable=0;points=[];autosize=1;strokeColor=none;fillColor=none;" parent="1" vertex="1">
          <mxGeometry x="-10" y="170" width="40" height="30" as="geometry" />
        </mxCell>
        <mxCell id="HOGzAkAIOEdq5Mt2ihTx-192" value="1,N" style="text;html=1;align=center;verticalAlign=middle;resizable=0;points=[];autosize=1;strokeColor=none;fillColor=none;" parent="1" vertex="1">
          <mxGeometry x="145" y="60" width="40" height="30" as="geometry" />
        </mxCell>
        <mxCell id="HOGzAkAIOEdq5Mt2ihTx-193" value="1,M" style="text;html=1;align=center;verticalAlign=middle;resizable=0;points=[];autosize=1;strokeColor=none;fillColor=none;" parent="1" vertex="1">
          <mxGeometry x="160" y="108" width="40" height="30" as="geometry" />
        </mxCell>
      </root>
    </mxGraphModel>
  </diagram>
</mxfile>
